# 3ds Max Wavefront OBJ Exporter v0.97b - (c)2007 guruware
# File Created: 08.06.2015 14:07:24

#
# object player2
#

v  51.2699 4.0423 5.8692
v  43.5499 4.0423 1.1152
v  43.5499 -7.1110 1.1152
v  51.2699 -7.1110 5.8692
v  57.5944 4.0423 10.7296
v  57.5944 -7.1110 10.7296
v  64.8808 -0.9138 3.8745
v  59.4599 4.0423 10.2216
v  59.1665 3.5908 10.5648
v  59.1665 -6.6595 10.5648
v  59.4599 -7.1110 10.2216
v  64.5876 -7.3349 4.2178
v  64.8808 -7.0640 3.8745
v  9.1644 -8.2010 -10.4028
v  9.0694 -7.1110 -9.3169
v  0.0001 -7.1110 -9.6400
v  0.0001 -8.2010 -10.7296
v  0.0001 4.0423 -9.6400
v  9.0694 4.0423 -9.3169
v  9.1644 5.1323 -10.4028
v  0.0001 5.1323 -10.7296
v  18.2548 -8.2010 -9.1319
v  18.0484 -7.1110 -8.0616
v  18.0484 4.0423 -8.0616
v  18.2548 5.1323 -9.1319
v  27.1658 -8.2010 -6.9308
v  26.8501 -7.1110 -5.8875
v  26.8501 4.0423 -5.8875
v  27.1658 5.1323 -6.9308
v  35.8026 -8.2010 -3.8228
v  35.3810 -7.1110 -2.8176
v  35.3810 4.0423 -2.8176
v  35.8026 5.1323 -3.8228
v  44.0728 -8.2010 0.1589
v  44.0728 5.1323 0.1589
v  51.8885 -8.2010 4.9718
v  51.8885 5.1323 4.9718
v  58.3024 -8.2010 9.9007
v  58.3024 5.1323 9.9007
v  64.7244 -7.3349 2.3813
v  64.7244 -0.6429 2.3813
v  64.0165 -7.9889 3.2103
v  43.5499 8.2010 1.1152
v  51.2699 8.2010 5.8692
v  0.0001 8.2010 -9.6400
v  9.0694 8.2010 -9.3169
v  18.0484 8.2010 -8.0616
v  26.8501 8.2010 -5.8875
v  35.3810 8.2010 -2.8176
v  57.5944 8.2010 10.7296
v  -51.2699 4.0423 5.8692
v  -51.2699 -7.1110 5.8692
v  -43.5499 -7.1110 1.1152
v  -43.5499 4.0423 1.1152
v  -57.5944 4.0423 10.7296
v  -57.5944 -7.1110 10.7296
v  -64.8808 -7.0640 3.8745
v  -64.5875 -7.3349 4.2178
v  -59.4597 -7.1110 10.2216
v  -59.1665 -6.6595 10.5648
v  -59.1665 3.5908 10.5648
v  -59.4597 4.0423 10.2216
v  -64.8808 -0.9138 3.8745
v  -9.1643 -8.2010 -10.4028
v  -9.0693 -7.1110 -9.3169
v  -9.1643 5.1323 -10.4028
v  -9.0693 4.0423 -9.3169
v  -18.2547 -8.2010 -9.1319
v  -18.0483 -7.1110 -8.0616
v  -18.2547 5.1323 -9.1319
v  -18.0483 4.0423 -8.0616
v  -27.1658 -8.2010 -6.9308
v  -26.8501 -7.1110 -5.8875
v  -27.1658 5.1323 -6.9308
v  -26.8501 4.0423 -5.8875
v  -35.8024 -8.2010 -3.8228
v  -35.3810 -7.1110 -2.8176
v  -35.8024 5.1323 -3.8228
v  -35.3810 4.0423 -2.8176
v  -44.0727 -8.2010 0.1589
v  -44.0727 5.1323 0.1589
v  -51.8885 -8.2010 4.9718
v  -51.8885 5.1323 4.9718
v  -58.3022 -8.2010 9.9007
v  -58.3022 5.1323 9.9007
v  -64.7243 -0.6429 2.3813
v  -64.7243 -7.3349 2.3813
v  -64.0164 -7.9889 3.2103
v  -43.5499 8.2010 1.1152
v  -51.2699 8.2010 5.8692
v  -9.0692 8.2010 -9.3169
v  -18.0483 8.2010 -8.0616
v  -26.8501 8.2010 -5.8875
v  -35.3810 8.2010 -2.8176
v  -57.5944 8.2010 10.7296
# 95 vertices

vn -0.5676 0.0000 0.8233
vn -0.5244 0.0000 0.8515
vn -0.6093 0.0000 0.7929
vn 0.7604 0.0000 0.6494
vn -0.0616 -0.7071 0.7044
vn 0.0000 -0.7069 0.7073
vn 0.0000 -0.7070 0.7073
vn 0.0000 0.7070 0.7073
vn -0.0616 0.7071 0.7044
vn -0.1339 -0.7071 0.6943
vn -0.1339 0.7071 0.6943
vn -0.2048 -0.7071 0.6768
vn -0.2048 0.7071 0.6768
vn -0.2734 -0.7071 0.6521
vn -0.2734 0.7071 0.6521
vn -0.3392 -0.7071 0.6204
vn -0.3392 0.7071 0.6204
vn -0.4014 -0.7071 0.5822
vn -0.4014 0.7071 0.5822
vn -0.4312 -0.7066 0.5610
vn -0.4312 0.7066 0.5610
vn 0.1042 0.0000 0.9946
vn 0.9946 0.0000 -0.1042
vn 0.9427 0.3314 -0.0386
vn 0.9074 0.4199 -0.0204
vn 0.5332 -0.7243 0.4372
vn 0.5461 -0.7105 0.4438
vn 0.3972 -0.8426 0.3636
vn 0.3707 -0.8608 0.3487
vn 0.4741 0.6687 0.5728
vn 0.5472 0.7111 0.4415
vn 0.2290 -0.4906 0.8408
vn 0.2290 0.4906 0.8408
vn 0.7104 -0.7018 0.0529
vn 0.0000 0.0000 1.0000
vn -0.0871 0.0000 0.9962
vn -0.1894 0.0000 0.9819
vn -0.2896 0.0000 0.9572
vn -0.3867 0.0000 0.9222
vn -0.4338 0.0000 0.9010
vn -0.4942 -0.3343 0.8025
vn -0.5349 -0.3347 0.7758
vn 0.0000 -0.3346 0.9424
vn -0.0821 -0.3347 0.9387
vn -0.1785 -0.3347 0.9253
vn -0.2729 -0.3347 0.9019
vn -0.3644 -0.3347 0.8690
vn -0.4088 -0.3343 0.8492
vn -0.5743 -0.3343 0.7473
vn 0.5676 0.0000 0.8233
vn 0.5244 0.0000 0.8515
vn 0.6093 0.0000 0.7929
vn -0.7604 0.0000 0.6494
vn 0.0616 -0.7071 0.7044
vn 0.0616 0.7071 0.7044
vn 0.1339 -0.7071 0.6943
vn 0.1339 0.7071 0.6943
vn 0.2048 -0.7071 0.6768
vn 0.2048 0.7071 0.6768
vn 0.2734 -0.7071 0.6521
vn 0.2734 0.7071 0.6521
vn 0.3392 -0.7071 0.6204
vn 0.3392 0.7071 0.6204
vn 0.4014 -0.7071 0.5822
vn 0.4014 0.7071 0.5822
vn 0.4312 -0.7066 0.5610
vn 0.4312 0.7066 0.5610
vn -0.1042 0.0000 0.9946
vn -0.9946 0.0000 -0.1042
vn -0.9074 0.4199 -0.0204
vn -0.9427 0.3314 -0.0386
vn -0.5332 -0.7243 0.4372
vn -0.3707 -0.8608 0.3487
vn -0.3972 -0.8426 0.3636
vn -0.5461 -0.7105 0.4438
vn -0.5472 0.7111 0.4415
vn -0.4741 0.6687 0.5728
vn -0.2290 -0.4906 0.8408
vn -0.2290 0.4906 0.8408
vn -0.7104 -0.7018 0.0529
vn 0.0871 0.0000 0.9962
vn 0.1894 0.0000 0.9819
vn 0.2896 0.0000 0.9572
vn 0.3867 0.0000 0.9222
vn 0.4338 0.0000 0.9010
vn 0.5349 -0.3347 0.7758
vn 0.4942 -0.3343 0.8025
vn 0.0821 -0.3347 0.9387
vn 0.1785 -0.3347 0.9253
vn 0.2729 -0.3347 0.9019
vn 0.3644 -0.3347 0.8690
vn 0.4088 -0.3343 0.8492
vn 0.5743 -0.3343 0.7473
# 93 vertex normals

vt 0.8669 0.0998 0.0000
vt 0.8075 0.0998 0.0000
vt 0.8086 0.0261 0.0000
vt 0.8681 0.0278 0.0000
vt 0.9170 0.0995 0.0000
vt 0.9185 0.0303 0.0000
vt 0.9796 0.0697 0.0000
vt 0.9264 0.0994 0.0000
vt 0.9250 0.0967 0.0000
vt 0.9269 0.0333 0.0000
vt 0.9284 0.0308 0.0000
vt 0.9775 0.0301 0.0000
vt 0.9800 0.0315 0.0000
vt 0.5617 0.0113 0.0000
vt 0.5616 0.0219 0.0000
vt 0.4987 0.0216 0.0000
vt 0.4988 0.0109 0.0000
vt 0.4984 0.0986 0.0000
vt 0.5611 0.0988 0.0000
vt 0.5611 0.1094 0.0000
vt 0.4984 0.1092 0.0000
vt 0.6243 0.0120 0.0000
vt 0.6242 0.0225 0.0000
vt 0.6236 0.0991 0.0000
vt 0.6235 0.1096 0.0000
vt 0.6865 0.0130 0.0000
vt 0.6864 0.0234 0.0000
vt 0.6855 0.0993 0.0000
vt 0.6855 0.1097 0.0000
vt 0.7481 0.0143 0.0000
vt 0.7479 0.0246 0.0000
vt 0.7469 0.0996 0.0000
vt 0.7469 0.1099 0.0000
vt 0.8088 0.0159 0.0000
vt 0.8074 0.1100 0.0000
vt 0.8687 0.0176 0.0000
vt 0.8672 0.1098 0.0000
vt 0.9226 0.0217 0.0000
vt 0.9211 0.1081 0.0000
vt 0.9893 0.0287 0.0000
vt 0.9886 0.0733 -0.4801
vt 0.9815 0.0226 0.0000
vt 0.8074 0.1315 0.0000
vt 0.8675 0.1313 0.0000
vt 0.4983 0.1316 0.0000
vt 0.5611 0.1317 0.0000
vt 0.6235 0.1317 0.0000
vt 0.6855 0.1317 0.0000
vt 0.7469 0.1316 0.0000
vt 0.9212 0.1300 0.0000
vt 0.1299 0.0973 0.0000
vt 0.1292 0.0253 0.0000
vt 0.1888 0.0239 0.0000
vt 0.1894 0.0977 0.0000
vt 0.0798 0.0966 0.0000
vt 0.0788 0.0274 0.0000
vt 0.0172 0.0281 0.0000
vt 0.0197 0.0268 0.0000
vt 0.0689 0.0278 0.0000
vt 0.0704 0.0303 0.0000
vt 0.0718 0.0938 0.0000
vt 0.0704 0.0964 0.0000
vt 0.0174 0.0663 0.0000
vt 0.4358 0.0108 0.0000
vt 0.4358 0.0214 0.0000
vt 0.4357 0.1089 0.0000
vt 0.4357 0.0984 0.0000
vt 0.3732 0.0111 0.0000
vt 0.3732 0.0216 0.0000
vt 0.3733 0.1087 0.0000
vt 0.3733 0.0982 0.0000
vt 0.3109 0.0117 0.0000
vt 0.3110 0.0221 0.0000
vt 0.3113 0.1084 0.0000
vt 0.3113 0.0980 0.0000
vt 0.2493 0.0125 0.0000
vt 0.2495 0.0229 0.0000
vt 0.2499 0.1082 0.0000
vt 0.2499 0.0979 0.0000
vt 0.1886 0.0137 0.0000
vt 0.1893 0.1079 0.0000
vt 0.1287 0.0151 0.0000
vt 0.1296 0.1073 0.0000
vt 0.0747 0.0188 0.0000
vt 0.0757 0.1051 0.0000
vt 0.0083 0.0699 -0.4801
vt 0.0080 0.0253 0.0000
vt 0.0158 0.0193 0.0000
vt 0.1892 0.1294 0.0000
vt 0.1291 0.1288 0.0000
vt 0.4356 0.1313 0.0000
vt 0.3732 0.1309 0.0000
vt 0.3112 0.1304 0.0000
vt 0.2498 0.1299 0.0000
vt 0.0754 0.1271 0.0000
# 95 texture coords

g player2
f 1/1/1 2/2/2 3/3/2 
f 3/3/2 4/4/1 1/1/1 
f 5/5/3 1/1/1 4/4/1 
f 4/4/1 6/6/3 5/5/3 
f 7/7/4 8/8/4 9/9/4 
f 9/9/4 10/10/4 11/11/4 
f 7/7/4 9/9/4 11/11/4 
f 11/11/4 12/12/4 13/13/4 
f 7/7/4 11/11/4 13/13/4 
f 14/14/5 15/15/5 16/16/6 
f 16/16/6 17/17/7 14/14/5 
f 18/18/8 19/19/9 20/20/9 
f 20/20/9 21/21/8 18/18/8 
f 22/22/10 23/23/10 15/15/5 
f 15/15/5 14/14/5 22/22/10 
f 20/20/9 19/19/9 24/24/11 
f 24/24/11 25/25/11 20/20/9 
f 26/26/12 27/27/12 23/23/10 
f 23/23/10 22/22/10 26/26/12 
f 25/25/11 24/24/11 28/28/13 
f 28/28/13 29/29/13 25/25/11 
f 30/30/14 31/31/14 27/27/12 
f 27/27/12 26/26/12 30/30/14 
f 29/29/13 28/28/13 32/32/15 
f 32/32/15 33/33/15 29/29/13 
f 34/34/16 3/3/16 31/31/14 
f 31/31/14 30/30/14 34/34/16 
f 33/33/15 32/32/15 2/2/17 
f 2/2/17 35/35/17 33/33/15 
f 36/36/18 4/4/18 3/3/16 
f 3/3/16 34/34/16 36/36/18 
f 35/35/17 2/2/17 1/1/19 
f 1/1/19 37/37/19 35/35/17 
f 38/38/20 6/6/20 4/4/18 
f 4/4/18 36/36/18 38/38/20 
f 37/37/19 1/1/19 5/5/21 
f 5/5/21 39/39/21 37/37/19 
f 9/9/22 5/5/22 6/6/22 
f 6/6/22 10/10/22 9/9/22 
f 13/13/23 40/40/23 41/41/24 
f 41/41/24 7/7/25 13/13/23 
f 11/11/26 38/38/27 42/42/28 
f 42/42/28 12/12/29 11/11/26 
f 39/39/30 8/8/31 7/7/25 
f 7/7/25 41/41/24 39/39/30 
f 10/10/32 6/6/32 38/38/32 
f 38/38/32 11/11/32 10/10/32 
f 8/8/31 39/39/30 5/5/33 
f 5/5/33 9/9/33 8/8/31 
f 12/12/34 42/42/34 40/40/34 
f 40/40/34 13/13/34 12/12/34 
f 16/16/35 15/15/36 19/19/36 
f 19/19/36 18/18/35 16/16/35 
f 15/15/36 23/23/37 24/24/37 
f 24/24/37 19/19/36 15/15/36 
f 23/23/37 27/27/38 28/28/38 
f 28/28/38 24/24/37 23/23/37 
f 27/27/38 31/31/39 32/32/39 
f 32/32/39 28/28/38 27/27/38 
f 31/31/39 3/3/40 2/2/40 
f 2/2/40 32/32/39 31/31/39 
f 43/43/41 35/35/41 37/37/42 
f 37/37/42 44/44/42 43/43/41 
f 45/45/43 21/21/43 20/20/44 
f 20/20/44 46/46/44 45/45/43 
f 46/46/44 20/20/44 25/25/45 
f 25/25/45 47/47/45 46/46/44 
f 47/47/45 25/25/45 29/29/46 
f 29/29/46 48/48/46 47/47/45 
f 48/48/46 29/29/46 33/33/47 
f 33/33/47 49/49/47 48/48/46 
f 49/49/47 33/33/47 35/35/48 
f 35/35/48 43/43/48 49/49/47 
f 50/50/49 44/44/42 37/37/42 
f 37/37/42 39/39/49 50/50/49 
f 51/51/50 52/52/50 53/53/51 
f 53/53/51 54/54/51 51/51/50 
f 55/55/52 56/56/52 52/52/50 
f 52/52/50 51/51/50 55/55/52 
f 57/57/53 58/58/53 59/59/53 
f 59/59/53 60/60/53 61/61/53 
f 61/61/53 62/62/53 63/63/53 
f 59/59/53 61/61/53 63/63/53 
f 57/57/53 59/59/53 63/63/53 
f 64/64/54 17/17/7 16/16/6 
f 16/16/6 65/65/54 64/64/54 
f 66/66/55 67/67/55 18/18/8 
f 18/18/8 21/21/8 66/66/55 
f 68/68/56 64/64/54 65/65/54 
f 65/65/54 69/69/56 68/68/56 
f 66/66/55 70/70/57 71/71/57 
f 71/71/57 67/67/55 66/66/55 
f 72/72/58 68/68/56 69/69/56 
f 69/69/56 73/73/58 72/72/58 
f 70/70/57 74/74/59 75/75/59 
f 75/75/59 71/71/57 70/70/57 
f 76/76/60 72/72/58 73/73/58 
f 73/73/58 77/77/60 76/76/60 
f 74/74/59 78/78/61 79/79/61 
f 79/79/61 75/75/59 74/74/59 
f 80/80/62 76/76/60 77/77/60 
f 77/77/60 53/53/62 80/80/62 
f 78/78/61 81/81/63 54/54/63 
f 54/54/63 79/79/61 78/78/61 
f 82/82/64 80/80/62 53/53/62 
f 53/53/62 52/52/64 82/82/64 
f 81/81/63 83/83/65 51/51/65 
f 51/51/65 54/54/63 81/81/63 
f 84/84/66 82/82/64 52/52/64 
f 52/52/64 56/56/66 84/84/66 
f 83/83/65 85/85/67 55/55/67 
f 55/55/67 51/51/65 83/83/65 
f 61/61/68 60/60/68 56/56/68 
f 56/56/68 55/55/68 61/61/68 
f 57/57/69 63/63/70 86/86/71 
f 86/86/71 87/87/69 57/57/69 
f 59/59/72 58/58/73 88/88/74 
f 88/88/74 84/84/75 59/59/72 
f 63/63/70 62/62/76 85/85/77 
f 85/85/77 86/86/71 63/63/70 
f 60/60/78 59/59/78 84/84/78 
f 84/84/78 56/56/78 60/60/78 
f 62/62/76 61/61/79 55/55/79 
f 55/55/79 85/85/77 62/62/76 
f 58/58/80 57/57/80 87/87/80 
f 87/87/80 88/88/80 58/58/80 
f 16/16/35 18/18/35 67/67/81 
f 67/67/81 65/65/81 16/16/35 
f 65/65/81 67/67/81 71/71/82 
f 71/71/82 69/69/82 65/65/81 
f 69/69/82 71/71/82 75/75/83 
f 75/75/83 73/73/83 69/69/82 
f 73/73/83 75/75/83 79/79/84 
f 79/79/84 77/77/84 73/73/83 
f 77/77/84 79/79/84 54/54/85 
f 54/54/85 53/53/85 77/77/84 
f 83/83/86 81/81/87 89/89/87 
f 89/89/87 90/90/86 83/83/86 
f 66/66/88 21/21/43 45/45/43 
f 45/45/43 91/91/88 66/66/88 
f 70/70/89 66/66/88 91/91/88 
f 91/91/88 92/92/89 70/70/89 
f 74/74/90 70/70/89 92/92/89 
f 92/92/89 93/93/90 74/74/90 
f 78/78/91 74/74/90 93/93/90 
f 93/93/90 94/94/91 78/78/91 
f 81/81/92 78/78/91 94/94/91 
f 94/94/91 89/89/92 81/81/92 
f 83/83/86 90/90/86 95/95/93 
f 95/95/93 85/85/93 83/83/86 
# 150 faces

